<?xml version="1.0" encoding="UTF-8"?>
<svg id="Laag_1" xmlns="http://www.w3.org/2000/svg" version="1.1" viewBox="0 0 1920 1080">
  <!-- Generator: Adobe Illustrator 30.3.0, SVG Export Plug-In . SVG Version: 2.1.3 Build 182)  -->
  <defs>
    <style>
      .st0 {
        fill: none;
        stroke: #000;
        stroke-miterlimit: 10;
        stroke-width: 4px;
      }
    </style>
  </defs>
  <path class="st0" d="M2268.06,632.37c-298.89-18.43-382.84,54.96-662.57,60.41-70.82,1.38-158.66-8.01-158.66-5.57s38.08,10.68,45.61,7.27c7.53-3.41,14.08-26.68,1.7-31.29s-65.26,11.88-61.87,16.5c3.4,4.61-4.85-184.62-13.34-193.73-11.66-12.52-79.58-4.47-79.1-12s63.56-18.67,85.89.98c22.32,19.65,23.05,200.88,15.53,209.38s-125.19,1.46-132.7-5.83,6.31-87.09,2.91-93.89c-3.4-6.8-32.51-17.47-32.51-26.68s34.21-21.11,33.73-24.02-36.88,6.07-40.52-1.46c-3.64-7.53,34.69-54.83,28.87-59.69-5.82-4.85-31.79,20.39-37.36,76.9-5.57,56.52,31.79,73.75,34.21,70.59,2.42-3.15-39.06-51.68-73.51-87.09-34.45-35.41-36.39-62.11-40.76-73.99-4.37-11.88-8.98-35.42-24.02-41.73-15.04-6.31-46.09,7.77-39.78,12.38s24.26-4.37,24.26-3.15-13.1,1.46-11.4,6.79,8.98.72,8.49,2.91-10.43,5.83-11.4,11.16,12.86-4.61,12.38-3.4-10.19,5.57-13.34,9.95c-3.15,4.37,4.85,22.81,10.19,24.26s2.67-19.17-2.18-16.98,16.01,30.57,27.18,36.39,14.8,26.2,10.43,26.2-7.27-9.22-6.55-14.08c.72-4.85,25.48-23.29,30.33-22.08s13.1,14.56,12.12,21.59-32.27,12.86-31.79,22.32,57.74,147.02,97.77,139.5,52.64-104.32,53.38-143.14-5.33-72.79-20.87-82.97c-15.53-10.19-29.11,14.8-26.2,18.93,2.91,4.13,10.19-15.28,7.03-19.65-3.15-4.37-49.98-5.57-52.88-.98-3.32,5.26,10.43,16.25,7.53,20.13-2.9,3.88-15.53,4.85-15.77,7.77s16.74-.48,18.93,4.61-13.34,41.97-18.67,42.46-21.83-24.5-25.23-29.84,27.66-70.59,23.29-74.24c-4.37-3.65-13.82,9.22-19.41,5.33-5.59-3.89,5.83-36.88-.24-40.52-6.07-3.64-6.55,14.08-37.36,28.14-30.81,14.06-42.21,9.95-56.29-16.74-14.08-26.68-10.19-80.79,10.19-93.4s58.23,46.83,64.54,46.83,16.74-21.59,29.6-6.55c12.86,15.04-25.23,33.97-25.23,30.81s7.27,5.57,7.77,14.08-7.03,56.77-13.58,47.31c-6.55-9.46,70.35,14.56,76.18,9.7,5.83-4.85,2.67-47.79-5.09-88.31-7.77-40.52-15.53-76.66-55.32-90.98-39.78-14.32-52.64,7.53-47.79,7.27s-7.03-27.66-47.31,18.19-5.83,151.15-10.43,149.69,4.85-4.85,10.43-4.13,17.95,3.4,19.89,7.27-8.01,9.22-8.01,15.04,5.83,4.37,6.07,8.01-5.09,5.57-4.13,10.92c.96,5.35,16.5,11.64,17.23,15.53s-.24,122.03-3.15,122.03-27.18-119.12-24.98-128.58,9.95-12.12,8.25-17.71-9.95.48-9.95-4.85,7.77-9.46,6.31-12.12-19.89-8.73-26.2-4.85c-6.31,3.88-43.91,157.46-34.45,182.44,9.46,24.98,33.97,36.39,43.91,31.05,9.95-5.33,9.95-38.34,13.34-35.42,3.4,2.91,1.7,7.53-5.57,7.03-7.27-.49-26.44-16.74-25.48-22.08s14.08-3.88,14.08-5.57-13.82-4.13-13.58-7.03,14.8-4.61,16.74-8.49c1.94-3.88-8.25-91.46-5.09-92.2s19.65,117.18,15.04,122.27-17.71-2.18-14.8-6.79c2.91-4.61,49.98,10.92,55.56,16.98,5.57,6.06-9.7,28.38-7.03,35.91s19.41,16.74,44.63,16.01c25.23-.72,38.34-4.85,38.34-10.92s-7.77-6.07-7.77-8.01,7.27-1.94,6.55-6.31c-.72-4.37-7.53-6.55-7.77-7.77s6.79.24,5.83-5.09c-.96-5.33-26.68-7.27-26.94-9.46s23.78,2.91,22.56-5.09-30.33-6.55-39.06.48c-8.73,7.03-20.63.24-33.73,6.55-13.1,6.31-1.7,36.63-10.19,39.3s-94.13-25.48-97.77-17.71c-3.64,7.77,41,12.62,32.27,18.93-8.73,6.31-85.65-7.03-87.09,2.67-1.44,9.7,87.09,5.33,87.09,13.1s-101.65,15.53-107.23,6.31c-4.05-6.69,12.86-38.82,6.79-38.82s-2.67,19.65-31.79,21.11-47.79-24.98-44.89-36.88c2.9-11.9,16.5-15.77,19.41-5.83,2.91,9.95-14.32,11.4-3.4,16.01,10.92,4.61,13.82-44.89,10.19-44.89s-2.67,24.98-7.27,24.26-12.38-38.82,11.64-38.08,3.88,62.11-4.13,57.25,13.34-48.52,24.74-41.24c11.4,7.28-11.64,53.14-19.17,49.98-7.53-3.15,16.98-59.93,30.81-44.63,13.84,15.29-16.5,51.92-22.32,47.07-5.83-4.85,26.44-44.63,30.33-41.48s5.09,33.97-27.18,50.94c-32.27,16.98-104.08-28.87-106.99-35.18s20.87-108.93,16.26-112.33-11.16,42.94-16.01,41.24,1.7-50.7-6.55-72.29-11.88-47.79-17.71-43.91,15.53,64.54,15.28,76.9c-.25,12.37-9.7,12.62-8.01,27.66,1.7,15.04,14.32,16.01,15.77,24.02s-34.21,74.24-39.78,73.51-10.92-138.29-7.77-138.29,3.4,128.58-7.03,149.69c-10.43,21.11-88.07,16.5-87.83,10.68s100.44-3.4,105.54-5.57,20.87-43.67,25.48-41.24,4.13,13.58,20.87,25.23c16.74,11.64,23.78,18.43,26.2,14.8s-6.07-14.32,1.94-28.14c8.01-13.82,27.66-10.43,27.66-14.32s-4.13-3.15-13.58-10.19c-9.45-7.03-7.27-23.53-10.92-40.52-3.65-16.99-11.88-69.87-16.01-86.37-4.13-16.5-11.88,10.92-7.03,11.16s-.24-27.9-8.49-56.29-88.8-25.72-87.34-32.99c1.46-7.27,36.88,8.73,41.97,5.57s7.27-5.83,17.47-32.99c10.2-27.16,7.03-64.54-2.91-79.58s-18.43-3.88-29.36,11.88-24.5,18.67-31.79,19.65-8.49,19.65-4.37,19.41,7.27-25.23-18.19-19.41c-25.47,5.82-.48,48.77,3.88,44.15s-8.25-10.19-20.87-5.83-10.92,12.62-19.41,12.38-29.36-43.91-16.26-49.74,17.23,19.89,22.81,17.71-10.68-31.29-5.57-38.08,40.04,12.86,43.43,5.83-22.81-22.56-7.27-33.73c15.53-11.16,24.74,21.11,36.88,18.67,12.14-2.43,1.22-22.56,27.42-26.44s24.74,43.43,33.97,41.48-9.95-80.79-79.58-78.36c-69.63,2.43-90,46.09-73.75,41,16.25-5.09-13.34-26.2-43.19-6.31s-19.89,64.04-8.01,92.68-.48,49.01.72,50.94,7.03,2.67,21.83-3.88,21.59-30.33,6.55-71.57c-15.04-41.24,3.64-53.38,11.64-51.18s15.53-.72,12.86-4.61-19.65,15.53-21.83,43.19c-2.18,27.66,35.91,45.85,36.63,58.23s-29.36,36.15-31.53,34.69,14.56-28.63,21.59-22.08c7.03,6.55,24.02,125.67,20.13,129.8s-22.32,8.01-32.27-6.79c-9.95-14.8-11.88-97.05-15.77-99.71s-8.01-4.13-35.66,6.07-26.94,36.88-26.94,50.46-5.83,42.7-.72,47.07,19.65-18.67,24.5-11.88-20.63,16.74-23.78,35.18c-3.15,18.45,14.32,64.54,9.22,66.24s-21.35-70.84-21.83-105.04c-.48-34.21,2.91-78.6,22.56-80.3,19.65-1.7,61.62,96.55,66.96,125.19,5.33,28.63-10.92,58.23-16.74,52.4-5.82-5.83,63.56-89.28,80.3-109.65,16.74-20.37,16.98-39.06,17.71-46.33s6.31-18.67,19.17-28.63c12.86-9.96,39.3-3.64,43.91,3.15s0,6.55-6.79,4.13-25.72,0-24.98-3.64,10.43-3.88,15.04,1.46,6.79,10.68,10.68,21.35c3.89,10.67.98,25.96-8.01,29.36s-4.61-19.17.72-18.19-12.38,21.83-22.56,31.53c-10.19,9.7-18.67,23.05-13.34,26.68s7.77-8.73,7.27-14.08-32.99-22.32-39.78-18.33-7.77,15.42-6.79,20.27,32.03,16.98,33.97,23.29-25.23,54.34-38.34,78.12-32.03,72.79-75.21,69.39c-43.18-3.4-48.52-47.55-44.63-49.49,3.89-1.94,23.78,32.03,15.53,35.91-8.25,3.88-149.93,14.56-153.33,9.22-3.4-5.33-9.22-62.11-13.1-92.68-3.88-30.57-.48-70.35,2.91-94.02,3.4-23.67,130.04-12.72,123.73-18.55s-97.05-8.25-131,6.79c-33.97,15.04-16.01,65.02-12.62,106.26,3.4,41.24,5.83,103.35,11.64,107.23s150.91-13.1,151.39-7.77-318.58,24.08-380.42,22.32c-170.32-4.85-362.46-41.73-473.08-45.61"/>
</svg>