<?xml version="1.0" encoding="UTF-8"?>
<svg id="Laag_1" xmlns="http://www.w3.org/2000/svg" version="1.1" viewBox="0 0 1920 1080">
  <!-- Generator: Adobe Illustrator 30.4.0, SVG Export Plug-In . SVG Version: 2.1.4 Build 226)  -->
  <defs>
    <style>
      .st0 {
        fill: none;
        stroke: #000;
        stroke-miterlimit: 10;
        stroke-width: 4px;
      }
    </style>
  </defs>
  <path class="st0" d="M1939.27,342.84c-45.32,1.99-29.28-155.62-87.53-156.24-39.23-.42-47.82,175.91-82.66,176.27-27.94.29-49.03-146.61-77.21-146.78-28.41-.17-63.16,180.03-95.19,180.31-34.95.31-48.9-138.35-78.25-138.92-29.15-.56-60.76,182.5-92.07,183.16-33.34.71-48.27-130.99-78.21-131s-58.16,185.02-89.15,185.26c-35.66.27-48.31-123.83-77.58-122.69-31.46,1.23-57.72,186.08-87.98,187.4-31.99,1.41-57.62-113.2-86.51-113.32-31.73-.13-46.79,187.71-76.82,188.23-33.15.57-56.51-104.53-92.91-104.52-32.21.01-36.3,187.24-65.81,188.42-37.61,1.51-68.11-95.68-98.8-95.33-33.5.38-20.19,188.45-54.39,187.96-39.83-.57-61.27-86.39-96.22-84.85-37.37,1.65-6.02,164.48-47.08,185.43-35.06,17.89-80.48-65.06-110.97-257.55-30.5-192.49-49.18-400.08-40.16-417.52,5.63-10.88,21.41-14.25,18.65-17.89s-55.48,16.78-55.32,9.34,50.77-15.83,49.96-21.84-53.04,9.5-52.88,4.27,46.72-17.89,45.91-22.48-52.23,9.81-52.23,5.54,49.74-14.18,47.56-20.12c-2.43-6.65-344.71-7.42-344.71-7.42"/>
</svg>